<svg id="레이어_1" data-name="레이어 1" xmlns="http://www.w3.org/2000/svg" viewBox="0 0 175 50"><defs><style>.cls-1{fill:#fff;}.cls-2{fill:#ae1300;}.cls-3{fill:#c51e05;}.cls-4{fill:#d02c1c;}.cls-5{fill:#d94939;}</style></defs><path class="cls-1" d="M60.47,24.65,59.1,26,58.22,36c-.17,2-1.43,3-3.8,3H52.36l.27-3h1.15a.55.55,0,0,0,.62-.54l.94-10.73Z"/><path class="cls-1" d="M64.73,28.16,63.77,39H60l.94-10.79Zm1.59-3.7-1.38,1.38-.11,1.25H61l.23-2.63Z"/><path class="cls-1" d="M78.63,28.16l-1.38,1.38a3.34,3.34,0,0,1,.35,2L76.94,39H73.18l.63-7.1c0-.61-.24-.92-.88-.92H70.82a.75.75,0,0,0-.79.65L69.36,39H65.63l.94-10.79h3.56l0,.54A3.29,3.29,0,0,1,72,28.16Z"/><path class="cls-1" d="M88.12,39l-1.25-4.49L84.82,39h-4L78.94,28.16h3.75l1.09,6.36,3-6.36H88.1l1.83,6.36,2.24-6.36h4.65l-1.38,1.38L92.15,39Z"/><path class="cls-1" d="M109.28,28.08l-1.36,1.35a3.38,3.38,0,0,1,.35,2l-.35,4.19c-.19,2.25-1.6,3.38-4.21,3.38h-3.49q-3.9,0-3.63-3.38l.33-4.19c.2-2.26,1.6-3.38,4.22-3.38Zm-5.09,7.17.29-3.4c0-.61-.24-.92-.88-.92h-1.92a.92.92,0,0,0-1,.92l-.29,3.4c0,.63.27.94.91.94h1.9A.91.91,0,0,0,104.19,35.25Z"/><path class="cls-1" d="M122.42,28.08l-1.35,1.35a3.46,3.46,0,0,1,.35,2l-.35,4.19c-.2,2.25-1.6,3.38-4.22,3.38h-3.48q-3.91,0-3.63-3.38l.33-4.19c.19-2.26,1.6-3.38,4.21-3.38Zm-5.09,7.17.29-3.4c.06-.61-.23-.92-.87-.92h-1.92a.93.93,0,0,0-1,.92l-.29,3.4c0,.63.28.94.92.94h1.9A.9.9,0,0,0,117.33,35.25Z"/><path class="cls-1" d="M128.64,35.44l.6-7.28q.27-3.59,4.41-3.59h9L141.26,26a3.36,3.36,0,0,1,.46,2.21l-.14,1.54h-3.8l.1-1.15c0-.76-.33-1.14-1.1-1.14h-2.55A1.08,1.08,0,0,0,133,28.55L132.44,35c-.05.77.32,1.15,1.1,1.15h2.55A1.09,1.09,0,0,0,137.32,35l.1-1.14h3.8l-.15,1.54c-.18,2.39-1.64,3.59-4.4,3.59h-4.19Q128.34,39,128.64,35.44Z"/><path class="cls-1" d="M160.85,24.65,159.48,26,158.35,39h-3.69l.73-8.29-4,8.29h-1.73l-2.53-8.27L146.4,39h-3.7L144,24.65h4.62l2.5,8.16L155,24.65Z"/><path class="cls-1" d="M169.35,30.16q4.08,0,3.84,3.59l-.13,1.69q-.27,3.59-4.4,3.59h-4.2q-4.14,0-3.86-3.59l.09-1.21h3.79l-.06.73c0,.75.34,1.13,1.13,1.13h2.54A1.1,1.1,0,0,0,169.3,35l.09-.81c.07-.75-.31-1.13-1.13-1.13H165q-4.14,0-3.87-3.61l.11-1.25q.27-3.59,4.4-3.59h9L173.27,26a3.49,3.49,0,0,1,.44,2.21l-.09.77h-3.79l0-.29c.05-.75-.31-1.13-1.09-1.13h-2.52A1.1,1.1,0,0,0,165,28.64l-.05.4c-.05.75.31,1.12,1.09,1.12Z"/><polygon class="cls-2" points="2.34 31.24 0.99 40.23 9.11 40.23 9.11 33.09 2.34 31.24"/><polygon class="cls-3" points="9.11 30.38 11.26 25.77 5.54 22.32 3.39 27.61 9.11 30.38"/><polygon class="cls-4" points="7.33 19.8 12.19 15.49 15.82 19.8 12.25 23.49 7.33 19.8"/><polygon class="cls-2" points="38.21 31.24 39.56 40.23 31.44 40.23 31.44 33.09 38.21 31.24"/><polygon class="cls-3" points="31.44 30.38 29.29 25.77 35.01 22.32 37.16 27.61 31.44 30.38"/><polygon class="cls-4" points="33.23 19.8 28.37 15.49 24.74 19.8 28.31 23.49 33.23 19.8"/><polygon class="cls-5" points="17.79 18.82 23.02 18.82 24.74 13.89 16.55 13.89 17.79 18.82"/></svg>