<?xml version="1.0" encoding="utf-8"?>
<!-- Generator: Adobe Illustrator 16.0.0, SVG Export Plug-In . SVG Version: 6.00 Build 0)  -->
<!DOCTYPE svg PUBLIC "-//W3C//DTD SVG 1.1//EN" "http://www.w3.org/Graphics/SVG/1.1/DTD/svg11.dtd">
<svg version="1.1" id="레이어_1" xmlns="http://www.w3.org/2000/svg" xmlns:xlink="http://www.w3.org/1999/xlink" x="0px"
	 y="0px" width="230px" height="70px" viewBox="0 280 600 300"
	 xml:space="preserve">
<g>
	<g>
		<defs>
			<path id="SVGID_1_" d="M86.253,380.468c0.318,0,1.006,0.052,0.929,0.049c-16.839,0.496-30.345,14.269-30.345,31.225v105.443
				h31.274c-0.316,0-0.979-0.049-0.93-0.045c16.839-0.494,30.348-14.27,30.348-31.226l0.074-105.447H86.253z"/>
		</defs>
		<use xlink:href="#SVGID_1_"  overflow="visible" fill="#FFFFFF"/>
		<clipPath id="SVGID_2_">
			<use xlink:href="#SVGID_1_"  overflow="visible"/>
		</clipPath>
		
			<rect x="56.838" y="380.468" clip-path="url(#SVGID_2_)" fill="#FFFFFF" stroke="#FFFFFF" stroke-miterlimit="10" width="60.767" height="136.718"/>
		<use xlink:href="#SVGID_1_"  overflow="visible" fill="none" stroke="#FFFFFF" stroke-miterlimit="10"/>
	</g>
	<path fill="#FFFFFF" stroke="#FFFFFF" stroke-miterlimit="10" d="M228.771,380.471h-53.13c0.321,0,0.628,0.037,0.946,0.046
		c0.075,0,0.152-0.009,0.227-0.009v0.021c-0.075-0.003-0.152-0.009-0.227-0.011c-17.192,0.504-30.976,14.564-30.976,31.879v0.359
		c0,0.172,0.022,0.344,0.026,0.517h-0.026v31.405h53.053c-0.318,0-0.628-0.04-0.946-0.052c-0.052,0.004-0.097,0.01-0.149,0.01
		v-0.015c0.052,0,0.097,0.005,0.149,0.005c17.192-0.502,30.976-14.561,30.976-31.87v-0.359c0-0.178-0.022-0.347-0.025-0.519h0.103
		V380.471z"/>
	<path fill="#FFFFFF" stroke="#FFFFFF" stroke-miterlimit="10" d="M155.838,338.439h-17.298c0.172,0,0.341,0.02,0.511,0.025
		c0.042-0.002,0.083-0.005,0.123-0.005v0.012c-0.041-0.003-0.081-0.006-0.123-0.006c-9.294,0.273-16.75,7.875-16.75,17.235v18.458
		h17.261c-0.172,0-0.338-0.021-0.51-0.026c-0.029,0.002-0.055,0.002-0.081,0.005v-0.008c0.026,0,0.052,0.003,0.081,0.003
		c9.294-0.276,16.748-7.878,16.748-17.235v-0.473h0.04V338.439z"/>
	<path fill="#FFFFFF" stroke="#FFFFFF" stroke-miterlimit="10" d="M433.155,435.251c0,0.474-0.169,0.889-0.502,1.247
		c-0.336,0.359-0.729,0.54-1.182,0.54h-3.554c-0.451,0-0.847-0.181-1.188-0.54c-0.342-0.358-0.514-0.773-0.514-1.247v-12.817h-5.2
		v12.926c0,1.427,0.511,2.668,1.525,3.732c1.02,1.064,2.201,1.596,3.555,1.596h7.2c1.348,0,2.536-0.531,3.546-1.596
		c1.009-1.064,1.516-2.306,1.516-3.732v-12.926h-5.202V435.251z M413.041,422.434h-5.572v3.666c0.052-0.003,0.106-0.014,0.158-0.014
		h3.554c0.454,0,0.85,0.178,1.183,0.53c0.335,0.351,0.506,0.766,0.506,1.242v7.393c0,0.474-0.171,0.889-0.506,1.247
		c-0.333,0.359-0.729,0.54-1.183,0.54h-3.554c-0.449,0-0.846-0.181-1.19-0.54c-0.335-0.358-0.508-0.773-0.508-1.247v-7.393v-0.023
		v-5.401h-0.123c-1.36,0-2.55,0.531-3.56,1.589c-1.013,1.06-1.519,2.307-1.519,3.744v7.61c0,1.414,0.506,2.65,1.519,3.715
		c1.01,1.064,2.186,1.596,3.527,1.596h7.229c1.358,0,2.538-0.531,3.549-1.596s1.515-2.306,1.515-3.732v-7.63
		c0-1.412-0.501-2.647-1.506-3.707C415.554,422.965,414.378,422.434,413.041,422.434 M453.618,422.434h-12.315v3.652h10.462
		c0.447,0,0.847,0.178,1.173,0.53c0.339,0.351,0.505,0.766,0.505,1.242v1.879h-0.014v3.652h0.014v3.648h-5.232
		c-0.464,0-0.863-0.184-1.199-0.548s-0.504-0.789-0.504-1.276c0-0.5,0.165-0.93,0.495-1.288c0.331-0.361,0.732-0.536,1.208-0.536
		h3.678v-3.652h-5.5c-1.364,0-2.555,0.528-3.563,1.587c-1.014,1.061-1.521,2.309-1.521,3.746v0.289c0,1.427,0.511,2.668,1.528,3.732
		c1.019,1.064,2.203,1.596,3.557,1.596h12.258v-12.958c0-1.412-0.501-2.647-1.505-3.707
		C456.132,422.965,454.96,422.434,453.618,422.434 M466.799,418.785h-5.205v16.592c0,1.414,0.507,2.65,1.516,3.715
		c1.014,1.064,2.192,1.596,3.533,1.596h8.824v-3.649h-6.973c-0.443,0-0.847-0.181-1.184-0.54c-0.345-0.358-0.512-0.773-0.512-1.247
		v-9.165h8.668v-3.652h-8.668V418.785z M522.687,424.022c-1.004-1.058-2.18-1.589-3.521-1.589h-5.564v3.652h3.71
		c0.452,0,0.846,0.178,1.182,0.53c0.336,0.351,0.502,0.766,0.502,1.242v12.829h5.2v-12.958
		C524.195,426.317,523.694,425.082,522.687,424.022 M498.879,422.434h-5.563v3.666c0.049-0.003,0.096-0.014,0.147-0.014h3.56
		c0.45,0,0.841,0.178,1.18,0.53c0.336,0.351,0.501,0.766,0.501,1.242v7.393c0,0.474-0.165,0.889-0.501,1.247
		c-0.339,0.359-0.729,0.54-1.18,0.54h-3.56c-0.445,0-0.842-0.181-1.182-0.54c-0.342-0.358-0.511-0.773-0.511-1.247v-7.393
		c0-0.034,0.005-0.058,0.005-0.086v-5.339h-0.128c-1.366,0-2.551,0.531-3.567,1.589c-1.009,1.06-1.517,2.307-1.517,3.744v7.61
		c0,1.414,0.508,2.65,1.517,3.715c1.017,1.064,2.189,1.596,3.529,1.596h7.232c1.354,0,2.535-0.531,3.546-1.596
		c1.015-1.064,1.52-2.306,1.52-3.732v-7.63c0-1.412-0.505-2.647-1.509-3.707C501.392,422.965,500.219,422.434,498.879,422.434
		 M506.854,440.688h5.205v-14.602v-3.652h-5.205V440.688z M392.75,422.434h-5.56v3.652h3.704c0.45,0,0.844,0.178,1.179,0.53
		c0.333,0.351,0.502,0.766,0.502,1.242v12.829h5.204v-12.958c0-1.412-0.502-2.647-1.512-3.707
		C395.263,422.965,394.093,422.434,392.75,422.434 M478.415,440.688h5.204v-18.254h-5.204V440.688z M293.558,422.434h-0.189v5.195
		h-0.003c0.006,0.072,0.02,0.148,0.02,0.229v7.393c0,0.474-0.168,0.889-0.501,1.247c-0.339,0.359-0.729,0.54-1.182,0.54h-3.555
		c-0.454,0-0.847-0.181-1.19-0.54c-0.339-0.358-0.508-0.773-0.508-1.247v-7.393c0-0.488,0.166-0.906,0.499-1.254
		c0.335-0.344,0.734-0.519,1.199-0.519h3.555c0.042,0,0.085,0.011,0.123,0.011v-3.663h-5.5c-1.362,0-2.553,0.531-3.563,1.589
		c-1.01,1.06-1.518,2.307-1.518,3.744v7.61c0,1.414,0.508,2.65,1.518,3.715s2.186,1.596,3.528,1.596h7.235
		c1.348,0,2.533-0.531,3.545-1.596c1.01-1.064,1.516-2.306,1.516-3.732v-7.63c0-1.412-0.503-2.647-1.51-3.707
		C296.073,422.965,294.9,422.434,293.558,422.434 M380.438,440.688h5.2v-14.602h0.012v-3.652h-5.212V440.688z M303.053,420.382
		c-1.015,1.064-1.521,2.295-1.521,3.695v16.61h5.204v-7.298h8.672v-3.652h-8.672v-5.531c0-0.487,0.166-0.905,0.505-1.247
		c0.333-0.35,0.731-0.525,1.196-0.525h6.971v-3.649h-8.827C305.239,418.785,304.063,419.318,303.053,420.382 M262.473,424.022
		c-1.01,1.06-1.518,2.295-1.518,3.707c0,1.629,0.511,2.98,1.526,4.05c1.021,1.07,2.203,1.61,3.555,1.61h5.375
		c0.473,0,0.872,0.175,1.2,0.536c0.324,0.358,0.484,0.788,0.484,1.288c0,0.487-0.16,0.912-0.496,1.276
		c-0.33,0.364-0.726,0.548-1.188,0.548h-10.456v3.649h12.278c1.363,0,2.548-0.528,3.554-1.587c1.007-1.059,1.512-2.304,1.512-3.741
		c0-1.617-0.502-2.96-1.503-4.024c-1.001-1.067-2.186-1.598-3.563-1.598h-5.378c-0.445,0-0.843-0.179-1.185-0.537
		c-0.341-0.358-0.51-0.78-0.51-1.253c0-0.511,0.163-0.946,0.481-1.312c0.327-0.367,0.729-0.55,1.214-0.55h10.444v-3.652h-12.298
		C264.662,422.434,263.485,422.965,262.473,424.022 M360.147,440.688h5.204v-14.602v-3.652h-5.204V440.688z M372.46,422.434h-5.568
		v3.652h3.716c0.447,0,0.844,0.178,1.176,0.53c0.336,0.351,0.502,0.766,0.502,1.242v12.829h5.204v-12.958
		c0-1.412-0.502-2.647-1.507-3.707C374.974,422.965,373.803,422.434,372.46,422.434 M323.555,418.785h-5.197v16.592
		c0,1.414,0.504,2.65,1.515,3.715c1.01,1.064,2.186,1.596,3.531,1.596h8.827v-3.649h-6.974c-0.45,0-0.847-0.181-1.188-0.54
		c-0.341-0.358-0.514-0.773-0.514-1.247v-9.165h8.676v-3.652h-8.676V418.785z M351.998,440.688h5.201v-18.254h-5.201V440.688z"/>
	<path fill="#FFFFFF" stroke="#FFFFFF" stroke-miterlimit="10" d="M369.391,460.286v35.471h-0.006v0.014
		c0,0.439-0.055,0.866-0.123,1.283c-0.198,1.146-0.666,2.188-1.322,3.084c-0.749,1.023-1.732,1.848-2.897,2.352
		c-0.012,0.009-0.028,0.016-0.043,0.02c-0.304,0.119-0.628,0.219-0.973,0.308c-0.149,0.041-0.292,0.092-0.444,0.121
		c-0.271,0.052-1.876,0.091-3.147,0.114v13.781h6.236c7.017,0,11.888-1.417,14.613-4.251c2.72-2.835,4.082-7.124,4.082-12.864
		v-39.38l-0.152-0.052H369.391z M522.606,464.743c-2.602-2.935-7.445-4.405-14.523-4.405h-20.707v13.543
		c0.235-0.01,0.485-0.016,0.772-0.016h12.584c4.18,0,6.87,0.752,8.078,2.253c1.211,1.503,1.813,3.896,1.813,7.175v10.688
		c-0.117,3.21-0.753,5.565-1.903,7.07c-1.15,1.501-3.808,2.252-7.987,2.252h-8.893c-3.876,0-6.457-0.817-7.759-2.455
		c-1.304-1.641-1.951-3.964-1.951-6.971v-6.121h-0.022v-27.336c-5.555,0.333-9.514,1.724-11.869,4.171
		c-2.723,2.834-4.084,7.119-4.084,12.86v22.266c0,5.74,1.361,10.029,4.084,12.864c2.726,2.834,7.594,4.251,14.613,4.251h23.231
		c7.078,0,11.922-1.469,14.523-4.405c2.597-2.936,3.901-7.176,3.901-12.71v-22.266C526.508,471.918,525.203,467.681,522.606,464.743
		 M437.803,460.338h-20.647v13.537c0.188-0.007,0.392-0.01,0.615-0.01h12.68c4.177,0,6.867,0.752,8.078,2.253
		c1.211,1.503,1.815,3.896,1.815,7.175v10.688c-0.123,3.21-0.753,5.565-1.906,7.07c-1.148,1.501-3.811,2.252-7.987,2.252h-8.893
		c-3.872,0-6.457-0.817-7.761-2.455c-1.302-1.641-1.949-3.964-1.949-6.971v-10.585c0-0.229,0.024-0.429,0.033-0.652v-22.223
		c-5.585,0.323-9.563,1.719-11.922,4.174c-2.72,2.834-4.084,7.119-4.084,12.86v22.266c0,5.74,1.364,10.029,4.084,12.864
		c2.723,2.834,7.594,4.251,14.607,4.251h23.236c7.08,0,11.922-1.469,14.521-4.405c2.6-2.936,3.901-7.176,3.901-12.71v-22.266
		c0-5.534-1.302-9.771-3.901-12.709C449.725,461.809,444.883,460.338,437.803,460.338 M355.125,495.757h-0.009v-35.419h-16.153
		v35.419h-0.006c0,0.005,0.006,0.008,0.006,0.014c0,0.052-0.014,0.101-0.014,0.155v7.167h-7.229v-0.035
		c-0.416-0.003-0.826-0.046-1.219-0.12c-0.155-0.029-0.302-0.08-0.448-0.121c-0.345-0.089-0.671-0.188-0.973-0.308
		c-0.012-0.004-0.031-0.011-0.043-0.02c-1.162-0.504-2.148-1.328-2.894-2.352c-0.657-0.896-1.122-1.938-1.323-3.084
		c-0.072-0.417-0.127-0.844-0.127-1.283v-0.014h-0.005v-35.471h-15.824l-0.151,0.052v39.38c0,5.74,1.365,10.029,4.085,12.864
		c2.723,2.834,7.593,4.251,14.61,4.251h8.503v0.007h19.251v-20.616c-0.009-0.155-0.037-0.298-0.037-0.453V495.757z M212.713,516.833
		h15.792l0.089-22.955v-33.54h-15.881V516.833z M186.723,493.878c0,3.007-0.651,5.33-1.951,6.971
		c-1.303,1.638-3.89,2.455-7.76,2.455h-31.4v13.529H184c7.017,0,11.891-1.417,14.609-4.251c2.723-2.835,4.089-7.124,4.089-12.864
		v-39.38h-15.976V493.878z M280.361,460.338h-20.686v13.527h13.337c4.17,0,6.864,0.752,8.075,2.253
		c1.21,1.503,1.815,3.896,1.815,7.175v33.54h15.881v-39.381c0-5.534-1.306-9.771-3.898-12.709
		C292.281,461.809,287.441,460.338,280.361,460.338 M254.406,460.421c-5.568,0.33-9.536,1.721-11.888,4.171
		c-2.723,2.834-4.083,7.119-4.083,12.86v39.381h15.973v-29.124h-0.002V460.421z"/>
</g>
</svg>
