<svg id="레이어_1" data-name="레이어 1" xmlns="http://www.w3.org/2000/svg" viewBox="0 0 240 50"><defs><style>.cls-1{fill:#fff;}</style></defs><path class="cls-1" d="M11,34.18h-2V31.12h1.08a.48.48,0,0,0,.54-.54V19.75H14.4V31.16Q14.4,34.18,11,34.18Z"/><path class="cls-1" d="M19.8,19.57v2.65H16.11V19.57Zm0,3.72V34.18H16.11V23.29Z"/><path class="cls-1" d="M24.71,34.18h-3.6V23.29h3.6Zm.54-8.1V23.46a3.22,3.22,0,0,1,1.08-.17h2.09Q32,23.29,32,26.5v7.68h-3.6V26.8a.64.64,0,0,0-.72-.72Z"/><path class="cls-1" d="M39.23,34.18h-3.6l-2.7-10.89h3.6Zm-.79-5.36,1.38-5.53h2.56l3.24,10.89h-3l-1.59-4.53-1.42,4Zm7.72,5.36-1.79-5.94,1.23-4.95h3.6L46.5,34.18Z"/><path class="cls-1" d="M55.31,26.08h-.84a.64.64,0,0,0-.72.72v3.87a.64.64,0,0,0,.72.72h.84v2.88h-1.6q-3.55,0-3.56-3.2V26.41c0-2.14,1.19-3.2,3.56-3.2h1.6Zm.54,0V23.21h1.6c2.38,0,3.57,1.06,3.57,3.2v4.66q0,3.2-3.57,3.2h-1.6V31.39h.85a.64.64,0,0,0,.72-.72V26.8a.64.64,0,0,0-.72-.72Z"/><path class="cls-1" d="M67.58,26.08h-.84a.64.64,0,0,0-.72.72v3.87a.64.64,0,0,0,.72.72h.84v2.88H66q-3.56,0-3.56-3.2V26.41c0-2.14,1.19-3.2,3.56-3.2h1.6Zm.54,0V23.21h1.6c2.38,0,3.57,1.06,3.57,3.2v4.66q0,3.2-3.57,3.2h-1.6V31.39H69a.64.64,0,0,0,.72-.72V26.8a.64.64,0,0,0-.72-.72Z"/><path class="cls-1" d="M83.74,28.19c-2.38,0-3.56-1.07-3.56-3.2V22.86c0-2.13,1.18-3.2,3.56-3.2h2.05v3H84.53a.64.64,0,0,0-.72.72v1.24a.64.64,0,0,0,.72.72h4q3.56,0,3.56,3.2v2.56q0,3.2-3.56,3.2h-2v-3h1.26a.64.64,0,0,0,.72-.72V28.91a.64.64,0,0,0-.72-.72Zm2.05,6.08H83.74c-2.38,0-3.56-1.07-3.56-3.2V29.41h3.63v1.17a.64.64,0,0,0,.72.72h1.26Zm.72-11.64v-3h2q3.56,0,3.56,3.2v1.21H88.49v-.72a.64.64,0,0,0-.72-.72Z"/><path class="cls-1" d="M98.78,26.08h-.85a.64.64,0,0,0-.72.72v3.87a.64.64,0,0,0,.72.72h.85v2.88h-1.6q-3.57,0-3.57-3.2V26.41c0-2.14,1.19-3.2,3.57-3.2h1.6Zm.54,0V23.21h1.6c2.37,0,3.56,1.06,3.56,3.2v4.66q0,3.2-3.56,3.2h-1.6V31.39h.84a.64.64,0,0,0,.72-.72V26.8a.64.64,0,0,0-.72-.72Z"/><path class="cls-1" d="M111.1,26.17v8h-3.69v-8h-1.8V23.29h1.8v-.53q0-3.21,3.57-3.21h2v3.06h-1.21a.63.63,0,0,0-.72.68H113v2.88Z"/><path class="cls-1" d="M121.3,26.35h-1.92v4a.64.64,0,0,0,.72.72h1.2v3.06h-2q-3.56,0-3.56-3.2V26.35h-1.8V23.29h1.8V19.57h3.69v3.72h1.92Z"/><path class="cls-1" d="M131.65,19.75V34.18h-3.73V19.75Z"/><path class="cls-1" d="M136.74,34.18h-3.6V23.29h3.6Zm.54-8.1V23.46a3.22,3.22,0,0,1,1.08-.17h2.08q3.57,0,3.57,3.21v7.68h-3.6V26.8a.64.64,0,0,0-.72-.72Z"/><path class="cls-1" d="M149,34.18h-3.6V23.29H149Zm.54-8.1V23.46a3.22,3.22,0,0,1,1.08-.17h2.08q3.57,0,3.57,3.21v7.68h-3.6V26.8a.64.64,0,0,0-.72-.72Z"/><path class="cls-1" d="M162.84,26.08H162a.64.64,0,0,0-.72.72v3.87a.64.64,0,0,0,.72.72h.84v2.88h-1.6q-3.56,0-3.56-3.2V26.41c0-2.14,1.19-3.2,3.56-3.2h1.6Zm.54,0V23.21H165c2.38,0,3.57,1.06,3.57,3.2v4.66q0,3.2-3.57,3.2h-1.6V31.39h.85a.64.64,0,0,0,.72-.72V26.8a.64.64,0,0,0-.72-.72Z"/><path class="cls-1" d="M176.93,34.18h-3.64L169.5,23.29h3.63Zm-.86-4,2.37-6.86h3.64l-3.8,10.89h-.81Z"/><path class="cls-1" d="M185.71,34.18c-2.14,0-3.2-1-3.2-2.84V30.28c0-1.9,1.06-2.85,3.2-2.85h2.46a3.16,3.16,0,0,1,1.07.18v2.25h-2.6a.47.47,0,0,0-.53.54V31a.47.47,0,0,0,.53.54h2.6V34a3.14,3.14,0,0,1-1.08.18ZM190,23.29c2.26,0,3.38,1,3.38,3v7.86h-3.59V26.8a.64.64,0,0,0-.72-.72H187a.48.48,0,0,0-.54.54v.08h-3.59v-.38c0-2,1.12-3,3.38-3Z"/><path class="cls-1" d="M201.92,26.35H200v4a.64.64,0,0,0,.72.72h1.21v3.06h-2c-2.38,0-3.56-1.07-3.56-3.2V26.35h-1.8V23.29h1.8V19.57H200v3.72h1.93Z"/><path class="cls-1" d="M206.74,19.57v2.65h-3.69V19.57Zm0,3.72V34.18h-3.69V23.29Z"/><path class="cls-1" d="M213.22,26.08h-.85a.64.64,0,0,0-.72.72v3.87a.64.64,0,0,0,.72.72h.85v2.88h-1.6q-3.57,0-3.57-3.2V26.41c0-2.14,1.19-3.2,3.57-3.2h1.6Zm.54,0V23.21h1.6c2.37,0,3.56,1.06,3.56,3.2v4.66q0,3.2-3.56,3.2h-1.6V31.39h.84a.64.64,0,0,0,.72-.72V26.8a.64.64,0,0,0-.72-.72Z"/><path class="cls-1" d="M223.92,34.18h-3.6V23.29h3.6Zm.54-8.1V23.46a3.22,3.22,0,0,1,1.08-.17h2.09q3.56,0,3.56,3.21v7.68h-3.6V26.8a.64.64,0,0,0-.72-.72Z"/></svg>